<mxfile host="app.diagrams.net" modified="2023-10-16T01:34:36.173Z" agent="Mozilla/5.0 (Windows NT 10.0; Win64; x64; rv:109.0) Gecko/20100101 Firefox/118.0" etag="qpkJcF1WZcsu_bxAVz48" version="22.0.4" type="github">
  <diagram name="Page-1" id="29-lUxLOSpv02_6RnXEP">
    <mxGraphModel dx="1114" dy="602" grid="1" gridSize="10" guides="1" tooltips="1" connect="1" arrows="1" fold="1" page="1" pageScale="1" pageWidth="850" pageHeight="1100" math="0" shadow="0">
      <root>
        <mxCell id="0" />
        <mxCell id="1" parent="0" />
        <mxCell id="zO9J5krB_gC_GQNKJRRC-15" style="edgeStyle=orthogonalEdgeStyle;rounded=0;orthogonalLoop=1;jettySize=auto;html=1;exitX=0.5;exitY=1;exitDx=0;exitDy=0;" edge="1" parent="1" source="zO9J5krB_gC_GQNKJRRC-2">
          <mxGeometry relative="1" as="geometry">
            <mxPoint x="460" y="160" as="targetPoint" />
          </mxGeometry>
        </mxCell>
        <mxCell id="zO9J5krB_gC_GQNKJRRC-2" value="" style="ellipse;whiteSpace=wrap;html=1;" vertex="1" parent="1">
          <mxGeometry x="400" y="30" width="120" height="80" as="geometry" />
        </mxCell>
        <mxCell id="zO9J5krB_gC_GQNKJRRC-16" style="edgeStyle=orthogonalEdgeStyle;rounded=0;orthogonalLoop=1;jettySize=auto;html=1;exitX=0.5;exitY=1;exitDx=0;exitDy=0;" edge="1" parent="1" source="zO9J5krB_gC_GQNKJRRC-3">
          <mxGeometry relative="1" as="geometry">
            <mxPoint x="460" y="290" as="targetPoint" />
          </mxGeometry>
        </mxCell>
        <mxCell id="zO9J5krB_gC_GQNKJRRC-3" value="" style="shape=parallelogram;perimeter=parallelogramPerimeter;whiteSpace=wrap;html=1;fixedSize=1;" vertex="1" parent="1">
          <mxGeometry x="400" y="170" width="120" height="60" as="geometry" />
        </mxCell>
        <mxCell id="zO9J5krB_gC_GQNKJRRC-17" style="edgeStyle=orthogonalEdgeStyle;rounded=0;orthogonalLoop=1;jettySize=auto;html=1;exitX=0.5;exitY=1;exitDx=0;exitDy=0;" edge="1" parent="1" source="zO9J5krB_gC_GQNKJRRC-4">
          <mxGeometry relative="1" as="geometry">
            <mxPoint x="450" y="420" as="targetPoint" />
          </mxGeometry>
        </mxCell>
        <mxCell id="zO9J5krB_gC_GQNKJRRC-4" value="" style="shape=parallelogram;perimeter=parallelogramPerimeter;whiteSpace=wrap;html=1;fixedSize=1;" vertex="1" parent="1">
          <mxGeometry x="390" y="300" width="120" height="60" as="geometry" />
        </mxCell>
        <mxCell id="zO9J5krB_gC_GQNKJRRC-18" style="edgeStyle=orthogonalEdgeStyle;rounded=0;orthogonalLoop=1;jettySize=auto;html=1;exitX=0.5;exitY=1;exitDx=0;exitDy=0;" edge="1" parent="1" source="zO9J5krB_gC_GQNKJRRC-5">
          <mxGeometry relative="1" as="geometry">
            <mxPoint x="450" y="550" as="targetPoint" />
          </mxGeometry>
        </mxCell>
        <mxCell id="zO9J5krB_gC_GQNKJRRC-5" value="" style="rounded=0;whiteSpace=wrap;html=1;" vertex="1" parent="1">
          <mxGeometry x="310" y="430" width="280" height="60" as="geometry" />
        </mxCell>
        <mxCell id="zO9J5krB_gC_GQNKJRRC-19" style="edgeStyle=orthogonalEdgeStyle;rounded=0;orthogonalLoop=1;jettySize=auto;html=1;exitX=0.5;exitY=1;exitDx=0;exitDy=0;" edge="1" parent="1" source="zO9J5krB_gC_GQNKJRRC-6">
          <mxGeometry relative="1" as="geometry">
            <mxPoint x="440" y="660" as="targetPoint" />
          </mxGeometry>
        </mxCell>
        <mxCell id="zO9J5krB_gC_GQNKJRRC-6" value="" style="shape=parallelogram;perimeter=parallelogramPerimeter;whiteSpace=wrap;html=1;fixedSize=1;" vertex="1" parent="1">
          <mxGeometry x="360" y="560" width="160" height="60" as="geometry" />
        </mxCell>
        <mxCell id="zO9J5krB_gC_GQNKJRRC-7" value="" style="ellipse;whiteSpace=wrap;html=1;" vertex="1" parent="1">
          <mxGeometry x="380" y="670" width="120" height="80" as="geometry" />
        </mxCell>
        <mxCell id="zO9J5krB_gC_GQNKJRRC-8" value="mulai " style="text;strokeColor=none;align=center;fillColor=none;html=1;verticalAlign=middle;whiteSpace=wrap;rounded=0;" vertex="1" parent="1">
          <mxGeometry x="430" y="55" width="60" height="30" as="geometry" />
        </mxCell>
        <mxCell id="zO9J5krB_gC_GQNKJRRC-9" value="input alas" style="text;strokeColor=none;align=center;fillColor=none;html=1;verticalAlign=middle;whiteSpace=wrap;rounded=0;" vertex="1" parent="1">
          <mxGeometry x="430" y="185" width="60" height="30" as="geometry" />
        </mxCell>
        <mxCell id="zO9J5krB_gC_GQNKJRRC-10" value="input tinggi" style="text;strokeColor=none;align=center;fillColor=none;html=1;verticalAlign=middle;whiteSpace=wrap;rounded=0;" vertex="1" parent="1">
          <mxGeometry x="395" y="315" width="110" height="30" as="geometry" />
        </mxCell>
        <mxCell id="zO9J5krB_gC_GQNKJRRC-12" value="selesai " style="text;strokeColor=none;align=center;fillColor=none;html=1;verticalAlign=middle;whiteSpace=wrap;rounded=0;" vertex="1" parent="1">
          <mxGeometry x="410" y="695" width="60" height="30" as="geometry" />
        </mxCell>
        <mxCell id="zO9J5krB_gC_GQNKJRRC-13" value="hitung luas (luas = 0,5*alas*tinggi)" style="text;strokeColor=none;align=center;fillColor=none;html=1;verticalAlign=middle;whiteSpace=wrap;rounded=0;" vertex="1" parent="1">
          <mxGeometry x="345" y="445" width="210" height="30" as="geometry" />
        </mxCell>
        <mxCell id="zO9J5krB_gC_GQNKJRRC-14" value="output luas segitiga" style="text;strokeColor=none;align=center;fillColor=none;html=1;verticalAlign=middle;whiteSpace=wrap;rounded=0;" vertex="1" parent="1">
          <mxGeometry x="385" y="582.5" width="110" height="15" as="geometry" />
        </mxCell>
      </root>
    </mxGraphModel>
  </diagram>
</mxfile>
